<svg xmlns="http://www.w3.org/2000/svg" width="113" height="83" viewBox="0 0 113 83" fill="none"><path d="M76 18C76 8.05887 67.9411 -8.69081e-07 58 0L31 2.36042e-06C28.2386 2.60183e-06 26 2.23858 26 5L26 39C26 44.5228 30.4772 49 36 49L71 49C73.7614 49 76 46.7614 76 44L76 18Z" fill="#FFF1DA"></path><path d="M72.1744 48.8472C70.8161 49.1515 69.4931 49.715 68.2875 50.5024C65.1467 52.5037 63.3194 55.3605 64.2064 56.8826C65.0933 58.4047 68.3584 58.0154 71.4991 56.0141C72.7209 55.2546 73.8063 54.2838 74.6885 53.1618C75.0979 52.6197 75.1713 51.9442 74.8761 51.4393L73.7239 49.4619C73.4308 48.9554 72.8227 48.7145 72.1744 48.8472Z" fill="#D5D6DB"></path><path d="M64.2874 21.8542C63.3024 22.0749 62.343 22.4837 61.4688 23.0548C59.1919 24.5056 57.8662 26.577 58.5088 27.6798C59.1513 28.7825 61.5198 28.5 63.7964 27.0494C64.6823 26.4983 65.4692 25.794 66.109 24.9804C66.4055 24.5875 66.4586 24.0981 66.2447 23.732L65.4104 22.3003C65.1981 21.9331 64.7575 21.758 64.2874 21.8542Z" fill="#D5D6DB"></path><path d="M51.4732 22.9846C51.254 22.9601 51.0202 23.0185 50.8174 23.148L45.4692 26.5563C45.0219 26.8405 44.8429 27.3878 45.0698 27.779C45.1217 27.8686 45.1927 27.9452 45.2789 28.0042L58.4606 37.0891L76.294 25.7244L51.4732 22.9846Z" fill="#029BC5"></path><path d="M107.85 21.7L59.3182 52.2521L30.6055 63.6775L15.9623 66.5882L14.3514 63.851L95.2465 13.9044C97.6573 12.4095 100.343 11.492 103.032 11.2449C104.209 11.143 105.372 11.1821 106.493 11.3609C107.487 11.5116 108.43 11.8024 109.294 12.2244C110.258 12.7027 112.092 12.7578 112.687 13.7107C112.689 13.7091 114.091 18.0835 107.85 21.7Z" fill="#E1E6E9"></path><path d="M59.9615 48.2095L38.9662 81.6795C38.704 82.1496 38.8597 82.6761 39.3136 82.8553C39.5921 82.9654 39.933 82.9219 40.2195 82.7399L45.5635 79.3497C46.5913 78.6974 47.5014 77.8688 48.2376 76.9153L88.954 29.0463L59.9615 48.2095Z" fill="#029BC5"></path><path d="M6.9819 47.092C6.63168 46.9723 6.21489 47.0344 5.86306 47.2585L1.44557 50.0719C0.843653 50.4549 0.603802 51.1914 0.909664 51.717C0.967939 51.817 1.04364 51.9049 1.13438 51.9773L13.5111 61.8897L26.5241 53.7616L6.9819 47.092Z" fill="#029BC5"></path><path d="M17.6595 63.6766L10.998 73.0061C10.9004 73.1402 10.9233 73.3085 11.0493 73.3818C11.1401 73.4347 11.2641 73.4252 11.3649 73.3576L15.4932 70.7417C15.5252 70.7214 15.5543 70.6959 15.5783 70.6668L25.3118 58.8321L17.6595 63.6766Z" fill="#029BC5"></path><path d="M105.697 11.7632C104.542 11.5777 103.345 11.5381 102.132 11.6447C100.951 13.2958 100.196 15.1505 99.9426 17.024C99.9241 17.4003 100.227 17.6711 100.62 17.629C100.743 17.6157 100.864 17.5728 100.973 17.504L108.581 12.6598C107.692 12.2212 106.72 11.9193 105.697 11.7632Z" fill="#029BC5"></path><path d="M89.1174 20.6713L94.0844 17.5343L98.711 25.4033L93.744 28.5403L89.1174 20.6713Z" fill="#D5D6DB"></path><path d="M85.9919 23.7835C85.3934 24.1626 85.1541 24.8914 85.458 25.4111L85.9503 26.2531C86.2742 26.7596 87.0135 26.8486 87.6017 26.4519C88.1616 26.0741 88.387 25.3875 88.1172 24.8804L87.6249 24.0385C87.3213 23.5192 86.5905 23.4049 85.9919 23.7835Z" fill="#3A556A"></path><path d="M81.5275 26.5559C80.929 26.9351 80.6897 27.6639 80.9936 28.1836L81.4859 29.0256C81.8098 29.532 82.549 29.6211 83.1373 29.2244C83.6971 28.8466 83.9226 28.1599 83.6528 27.6529L83.1605 26.8109C82.8566 26.2918 82.1258 26.1775 81.5275 26.5559Z" fill="#3A556A"></path><path d="M77.0617 29.3293C76.4638 29.7089 76.2254 30.4369 76.529 30.9561L77.0213 31.7981C77.3452 32.3045 78.0844 32.3936 78.6727 31.9969C79.2325 31.6191 79.458 30.9325 79.1882 30.4254L78.6959 29.5835C78.392 29.0638 77.6604 28.95 77.0617 29.3293Z" fill="#3A556A"></path><path d="M72.5974 32.1017C71.9995 32.4813 71.7611 33.2092 72.0647 33.7285L72.557 34.5705C72.8809 35.077 73.6202 35.166 74.2084 34.7693C74.7683 34.3915 74.9937 33.7049 74.7239 33.1978L74.2316 32.3558C73.9275 31.8363 73.1959 31.7225 72.5974 32.1017Z" fill="#3A556A"></path><path d="M68.1335 34.8743C67.5352 35.2542 67.2967 35.9824 67.6005 36.5019L68.0931 37.3442C68.3968 37.8635 69.128 37.9772 69.7264 37.5982C70.3248 37.2192 70.5637 36.491 70.26 35.9718L69.7674 35.1294C69.4645 34.6097 68.7335 34.4952 68.1347 34.8735L68.1335 34.8743Z" fill="#3A556A"></path><path d="M63.669 37.6468C63.0708 38.0266 62.8323 38.7548 63.1361 39.2743L63.6287 40.1167C63.9324 40.6359 64.6636 40.7497 65.262 40.3707C65.8604 39.9917 66.0992 39.2635 65.7956 38.7442L65.303 37.9019C65.0001 37.3821 64.2691 37.2677 63.6703 37.646L63.669 37.6468Z" fill="#3A556A"></path><path d="M59.2044 40.4193C58.6062 40.7991 58.3677 41.5273 58.6715 42.0468L59.1641 42.8891C59.4685 43.4079 60.2001 43.5205 60.7978 43.141C61.3945 42.7622 61.6329 42.0355 61.3307 41.5169L60.8381 40.6746C60.5345 40.1549 59.8033 40.0406 59.2044 40.4193Z" fill="#3A556A"></path><path d="M54.7398 43.1918C54.1416 43.5716 53.9031 44.2999 54.2069 44.8194L54.6995 45.6617C55.0039 46.1805 55.7355 46.2931 56.3332 45.9136C56.9299 45.5347 57.1683 44.8081 56.8661 44.2894L56.3735 43.4471C56.0699 42.9274 55.3387 42.8131 54.7398 43.1918Z" fill="#3A556A"></path><path d="M50.2755 45.9643C49.6773 46.3441 49.4388 47.0723 49.7426 47.5917L50.2352 48.4341C50.5396 48.9528 51.2712 49.0654 51.8689 48.6859C52.4656 48.3071 52.704 47.5805 52.4018 47.0618L51.9092 46.2195C51.6054 45.7 50.8742 45.5857 50.2755 45.9643Z" fill="#3A556A"></path><path d="M45.8097 48.7375C45.2114 49.1165 44.9725 49.8446 45.2761 50.3639L45.7694 51.2073C46.0738 51.7261 46.8054 51.8387 47.4031 51.4592C47.9998 51.0804 48.2382 50.3537 47.936 49.8351L47.4434 48.9927C47.1398 48.4731 46.4086 48.3588 45.8097 48.7375Z" fill="#3A556A"></path><path d="M41.3465 51.5092C40.7482 51.8882 40.5093 52.6163 40.8129 53.1356L41.3062 53.979C41.6106 54.4978 42.3422 54.6103 42.94 54.2309C43.5367 53.852 43.7751 53.1254 43.4728 52.6067L42.9802 51.7644C42.6764 51.2449 41.9452 51.1306 41.3465 51.5092Z" fill="#3A556A"></path></svg>